<svg xmlns="http://www.w3.org/2000/svg" viewBox="0 0 64 64">
  <defs>
    <linearGradient id="g" x1="0" y1="0" x2="1" y2="1">
      <stop offset="0%" stop-color="#00e1ff"/>
      <stop offset="100%" stop-color="#ff2bd6"/>
    </linearGradient>
  </defs>
  <circle cx="32" cy="32" r="30" fill="#0a0e1a"/>
  <path d="M22 18c-5 0-8 4-8 9 0 3 1 5 3 7-2 2-3 4-3 7 0 5 4 9 9 9 2 0 4-1 5-2 1 1 3 2 5 2 5 0 9-4 9-9 0-3-1-5-3-7 2-2 3-4 3-7 0-5-3-9-8-9-2 0-4 1-5 2-1-1-3-2-5-2z"
        fill="none" stroke="url(#g)" stroke-width="2.5" stroke-linejoin="round"/>
  <circle cx="32" cy="32" r="3" fill="url(#g)"/>
</svg>
